<svg xmlns="http://www.w3.org/2000/svg" xmlns:xlink="http://www.w3.org/1999/xlink" width="100" height="100" viewBox="0 0 100 100">
  <defs>
    <path id="chevron-a" d="M22.7978837,49.2323665 L72.1905703,1.71230464 C72.6037261,1.31481279 73.2573777,1.31562734 73.6695416,1.71414768 L78.1617416,6.0576459 C78.584676,6.46658023 78.5960253,7.14094308 78.187091,7.56387748 C78.1776075,7.5736856 78.1679365,7.58331061 78.1580833,7.5927472 L34.6813909,49.2311584 C34.2565122,49.6380724 34.2419489,50.3123735 34.6488629,50.7372521 C34.6593204,50.7481713 34.6700092,50.7588666 34.680922,50.7693308 L78.1921918,92.4917411 C78.6168223,92.898914 78.6309746,93.5732239 78.2238017,93.9978544 C78.2116626,94.010514 78.1992126,94.0228718 78.1864633,94.0349166 L73.6691558,98.3025846 C73.2558766,98.6930248 72.6088162,98.6900844 72.1991025,98.2959041 L22.7978837,50.7676335 C22.3739314,50.3597545 22.3609014,49.6854221 22.7687804,49.2614698 C22.7782931,49.2515822 22.787996,49.2418792 22.7978837,49.2323665 Z"/>
  </defs>
  <g fill="none" fill-rule="evenodd">
    <use fill="#171717" xlink:href="#chevron-a"/>
  </g>
</svg>
