<svg xmlns="http://www.w3.org/2000/svg" xmlns:xlink="http://www.w3.org/1999/xlink" width="100" height="100" viewBox="0 0 100 100">
  <defs>
    <path id="cross-a" d="M42.0785965,50 L1.05180997,8.97321344 C0.270761388,8.19216485 0.270761388,6.92583489 1.05180997,6.14478631 L6.14478631,1.05180997 C6.92583489,0.270761388 8.19216485,0.270761388 8.97321344,1.05180997 L50,42.0785965 L91.0267866,1.05180997 C91.8078351,0.270761388 93.0741651,0.270761388 93.8552137,1.05180997 L98.94819,6.14478631 C99.7292386,6.92583489 99.7292386,8.19216485 98.94819,8.97321344 L57.9214035,50 L98.94819,91.0267866 C99.7292386,91.8078351 99.7292386,93.0741651 98.94819,93.8552137 L93.8552137,98.94819 C93.0741651,99.7292386 91.8078351,99.7292386 91.0267866,98.94819 L50,57.9214035 L8.97321344,98.94819 C8.19216485,99.7292386 6.92583489,99.7292386 6.14478631,98.94819 L1.05180997,93.8552137 C0.270761388,93.0741651 0.270761388,91.8078351 1.05180997,91.0267866 L42.0785965,50 Z"/>
  </defs>
  <g fill="none" fill-rule="evenodd">
    <use fill="#979797" fill-rule="nonzero" xlink:href="#cross-a"/>
  </g>
</svg>
