<svg xmlns="http://www.w3.org/2000/svg" xmlns:xlink="http://www.w3.org/1999/xlink" width="100" height="100" viewBox="0 0 100 100">
  <defs>
    <path id="dribbble-a" d="M50,1 C77.0344102,1 99,22.9655898 99,50 C99,77.0344102 77.0344102,99 50,99 C22.9655898,99 1,77.0344102 1,50 C1,22.9655898 22.9655898,1 50,1 Z M91.3965781,49.4931562 C91.2275664,39.8619766 87.8482891,30.9068437 82.2722422,23.9794687 C82.2722422,23.9794687 76.189543,32.9346016 59.4619766,40.0311797 C60.6446758,42.3967695 61.8275664,45.1001914 63.0102656,47.8036133 C66.5585547,47.2967695 70.1068438,46.9587461 73.8241445,46.9587461 C79.9068438,46.9587461 85.8207227,47.8034219 91.3965781,49.4931562 Z M50,8.60342188 C46.6207227,8.60342188 43.4102656,9.11026563 40.3690117,9.7863125 C40.3690117,9.7863125 47.9724336,18.5724336 55.9138789,33.2724336 C64.0241445,30.0619766 71.7965781,25.5 77.3724336,19.0792773 C70.1068437,12.489543 60.4758555,8.60342188 50,8.60342188 Z M32.0897344,12.6585547 C20.7690117,18.2344102 12.3207227,28.7102656 9.44848047,41.2136875 C9.44848047,41.2136875 28.2036133,41.5515195 47.1277578,36.1446758 C39.3553242,21.9517109 32.0897344,12.6585547 32.0897344,12.6585547 Z M8.60342187,50 C8.60342187,60.6448672 12.6585547,70.2758555 19.2482891,77.7100742 C27.0207227,64.6998086 39.3551328,54.7307969 54.0551328,49.9998086 C53.0414453,47.8032305 51.8587461,45.437832 50.8448672,43.2412539 C40.2,46.6205312 26.3448672,48.9861211 8.60342187,48.9861211 C8.60342187,49.3241445 8.60342187,49.6619766 8.60342187,50 Z M50,91.2275664 C55.5758555,91.2275664 60.9826992,90.2138789 65.8826992,88.1861211 C64.362168,77.2034219 60.9826992,66.5585547 57.0965781,56.9275664 C43.410457,61.1517109 31.9207227,70.4448672 24.9931563,82.7792773 C31.9207227,88.0173008 40.5380234,91.2275664 50,91.2275664 Z M72.9792773,84.3 C82.1034219,78.2173008 88.6931563,68.4173008 90.889543,57.0965781 C85.4825078,55.2380234 79.737832,54.3931562 73.8239531,54.3931562 C70.9515195,54.3931562 68.4171094,54.5619766 65.7136875,54.9 C68.9241445,63.8551328 71.6275664,73.6551328 72.9792773,84.3 Z"/>
  </defs>
  <g fill="none" fill-rule="evenodd">
    <use fill="#171717" fill-rule="nonzero" xlink:href="#dribbble-a"/>
  </g>
</svg>
