<svg xmlns="http://www.w3.org/2000/svg" xmlns:xlink="http://www.w3.org/1999/xlink" width="100" height="100" viewBox="0 0 100 100">
  <defs>
    <path id="linkedin-a" d="M99,60.6313254 L99,97 L77.9954268,97 L77.9954268,63.06708 C77.9954268,54.5428538 74.9573418,48.7254028 67.3543826,48.7254028 C61.5504874,48.7254028 58.0965853,52.6459385 56.5770872,56.4383969 C56.0229682,57.7941859 55.8803372,59.6812668 55.8803372,61.5790969 L55.8803372,97 L34.8687008,97 C34.8687008,97 35.1516843,39.5287711 34.8687008,33.5743232 L55.8782866,33.5743232 L55.8782866,42.5646591 C55.8356796,42.6318996 55.7803133,42.7044005 55.7402125,42.7695826 L55.8782866,42.7695826 L55.8782866,42.5646591 C58.6696155,38.2491423 63.6546358,32.0842818 74.8126603,32.0842818 C88.6366989,32.0840531 99,41.1494056 99,60.6313254 Z M12.8896347,3 C5.7015812,3 1,7.73268257 1,13.9563214 C1,20.0443356 5.56555774,24.9206476 12.6107524,24.9206476 L12.7511049,24.9206476 C20.0783717,24.9206476 24.6352713,20.0452504 24.6352713,13.9563214 C24.4971973,7.73268257 20.0783717,3 12.8896347,3 Z M2.24790696,97 L23.2515688,97 L23.2515688,33.5743232 L2.24790696,33.5743232 L2.24790696,97 Z"/>
  </defs>
  <g fill="none" fill-rule="evenodd">
    <use fill="#171717" fill-rule="nonzero" xlink:href="#linkedin-a"/>
  </g>
</svg>
