<svg xmlns="http://www.w3.org/2000/svg" xmlns:xlink="http://www.w3.org/1999/xlink" width="136" height="58" viewBox="0 0 136 58">
  <defs>
    <path id="regular-a" d="M5.264,18.746 C4.25599496,18.0273297 3.5653352,17.0520062 3.192,15.82 C2.9119986,14.961329 2.772,13.832007 2.772,12.432 C2.772,11.1439936 2.9119986,10.0146715 3.192,9.044 C3.5653352,7.84932736 4.26066158,6.89733688 5.278,6.188 C6.29533842,5.47866312 7.503993,5.124 8.904,5.124 C10.304007,5.124 11.5266614,5.47866312 12.572,6.188 C13.6173386,6.89733688 14.2986651,7.79332792 14.616,8.876 C14.7093338,9.11866788 14.7746665,9.3799986 14.812,9.66 L14.812,9.716 C14.812,9.94000112 14.6906679,10.0706665 14.448,10.108 L12.628,10.36 L12.544,10.36 C12.3386656,10.36 12.2080003,10.2573344 12.152,10.052 L12.068,9.688 C11.9186659,9.05333016 11.5546696,8.52133548 10.976,8.092 C10.3973304,7.66266452 9.69733744,7.448 8.876,7.448 C8.07332932,7.448 7.3920028,7.66266452 6.832,8.092 C6.2719972,8.52133548 5.90800084,9.09066312 5.74,9.8 C5.57199916,10.4720034 5.488,11.3586612 5.488,12.46 C5.488,13.5426721 5.57199916,14.4199966 5.74,15.092 C5.9266676,15.8386704 6.29533058,16.4266645 6.846,16.856 C7.39666942,17.2853355 8.07332932,17.5 8.876,17.5 C9.67867068,17.5 10.3693304,17.2900021 10.948,16.87 C11.5266696,16.4499979 11.8999992,15.9133366 12.068,15.26 L12.096,15.148 L12.096,15.12 C12.1146668,15.0266662 12.1706662,14.9380004 12.264,14.854 C12.3573338,14.7699996 12.4599994,14.7373332 12.572,14.756 L14.392,15.064 C14.6533346,15.1200003 14.7746668,15.2693321 14.756,15.512 C14.7373332,15.586667 14.690667,15.7639986 14.616,16.044 C14.2986651,17.1826724 13.6173386,18.0973299 12.572,18.788 C11.5266614,19.4786701 10.304007,19.824 8.904,19.824 C7.48532624,19.824 6.27200504,19.4646703 5.264,18.746 Z M27.338,5.726 C28.1873376,6.12733534 28.8406644,6.68732974 29.298,7.406 C29.7553357,8.12467026 29.984,8.94132876 29.984,9.856 L29.984,19.18 C29.984,19.3106673 29.9466671,19.413333 29.872,19.488 C29.797333,19.562667 29.6946674,19.6 29.564,19.6 L27.716,19.6 C27.5853327,19.6 27.4826671,19.562667 27.408,19.488 C27.333333,19.413333 27.296,19.3106673 27.296,19.18 L27.296,18.396 C27.296,18.3399997 27.2773336,18.3026668 27.24,18.284 C27.2026665,18.2653332 27.1653336,18.2746665 27.128,18.312 C26.6053308,18.7973358 25.9846703,19.1706654 25.266,19.432 C24.5473298,19.6933346 23.7680042,19.824 22.928,19.824 C21.5653266,19.824 20.4453378,19.4740035 19.568,18.774 C18.6906623,18.0739965 18.252,17.0146738 18.252,15.596 C18.252,14.1399927 18.7606616,12.9966708 19.778,12.166 C20.7953385,11.3353292 22.2186576,10.92 24.048,10.92 L27.156,10.92 C27.2493338,10.92 27.296,10.8733338 27.296,10.78 L27.296,10.052 C27.296,9.23066256 27.0580024,8.59133562 26.582,8.134 C26.1059977,7.67666438 25.3826716,7.448 24.412,7.448 C23.6466629,7.448 23.0260024,7.5879986 22.55,7.868 C22.0739977,8.1480014 21.7613341,8.53999748 21.612,9.044 C21.537333,9.28666788 21.3786679,9.39866676 21.136,9.38 L19.12,9.128 C18.9893327,9.10933324 18.8866671,9.06733366 18.812,9.002 C18.737333,8.93666634 18.7093333,8.8573338 18.728,8.764 C18.8960009,7.69999468 19.4979949,6.82733674 20.534,6.146 C21.5700052,5.46466326 22.8439925,5.124 24.356,5.124 C25.4946724,5.124 26.4886625,5.32466466 27.338,5.726 Z M26.19,16.772 C26.9273371,16.2493307 27.296,15.5866707 27.296,14.784 L27.296,13.16 C27.296,13.0666662 27.2493338,13.02 27.156,13.02 L24.552,13.02 C23.4506612,13.02 22.5733366,13.2346645 21.92,13.664 C21.2666634,14.0933355 20.94,14.6906628 20.94,15.456 C20.94,16.1466701 21.1873309,16.6693316 21.682,17.024 C22.1766692,17.3786684 22.8159961,17.556 23.6,17.556 C24.5893383,17.556 25.452663,17.2946693 26.19,16.772 Z M36.8820001,19.264 C36.0326625,18.9279983 35.3746691,18.4660029 34.9080001,17.878 C34.4413311,17.2899971 34.2080001,16.6413369 34.2080001,15.932 L34.2080001,15.764 C34.2080001,15.6333327 34.2453331,15.530667 34.3200001,15.456 C34.3946671,15.381333 34.4973328,15.344 34.6280001,15.344 L36.3640001,15.344 C36.4946674,15.344 36.5973331,15.3626665 36.6720001,15.4 C36.7466671,15.4373335 36.7840001,15.4839997 36.7840001,15.54 L36.7840001,15.764 C36.7840001,16.2866693 37.0686639,16.743998 37.6380001,17.136 C38.2073363,17.528002 38.9213291,17.724 39.7800001,17.724 C40.6386711,17.724 41.3293308,17.5420018 41.8520001,17.178 C42.3746694,16.8139982 42.6360001,16.3520028 42.6360001,15.792 C42.6360001,15.250664 42.3933359,14.844668 41.9080001,14.574 C41.4226643,14.303332 40.6386722,14.0186682 39.5560001,13.72 C38.4919948,13.4213318 37.6006704,13.1180015 36.8820001,12.81 C36.1633298,12.5019985 35.5566692,12.0633362 35.0620001,11.494 C34.567331,10.9246638 34.3200001,10.1920045 34.3200001,9.296 C34.3200001,8.04532708 34.8099952,7.05133702 35.7900001,6.314 C36.770005,5.57666298 38.071992,5.208 39.6960001,5.208 C40.7786722,5.208 41.7353293,5.38066494 42.5660001,5.726 C43.3966709,6.07133506 44.0359979,6.55199692 44.4840001,7.168 C44.9320023,7.78400308 45.1560001,8.47466284 45.1560001,9.24 C45.1560001,9.35200056 45.1186671,9.44066634 45.0440001,9.506 C44.9693331,9.57133366 44.8666674,9.604 44.7360001,9.604 L43.0560001,9.604 C42.9253328,9.604 42.8226671,9.58533352 42.7480001,9.548 C42.6733331,9.51066648 42.6360001,9.46400028 42.6360001,9.408 L42.6360001,9.24 C42.6360001,8.69866396 42.3700028,8.24600182 41.8380001,7.882 C41.3059974,7.51799818 40.5826713,7.336 39.6680001,7.336 C38.8466627,7.336 38.179336,7.49466508 37.6660001,7.812 C37.1526642,8.12933492 36.8960001,8.55866396 36.8960001,9.1 C36.8960001,9.64133604 37.143331,10.0519986 37.6380001,10.332 C38.1326692,10.6120014 38.9306613,10.9106651 40.0320001,11.228 C41.1146722,11.5266682 42.0153298,11.8206652 42.7340001,12.11 C43.4526704,12.3993348 44.0639976,12.8286638 44.5680001,13.398 C45.0720026,13.9673362 45.3240001,14.7093288 45.3240001,15.624 C45.3240001,16.8933397 44.8246718,17.9013296 43.8260001,18.648 C42.8273284,19.3946704 41.4880085,19.768 39.8080001,19.768 C38.7066613,19.768 37.7313377,19.6000017 36.8820001,19.264 Z M51.4100001,19.264 C50.5606626,18.9279983 49.9026691,18.4660029 49.4360001,17.878 C48.9693311,17.2899971 48.7360001,16.6413369 48.7360001,15.932 L48.7360001,15.764 C48.7360001,15.6333327 48.7733331,15.530667 48.8480001,15.456 C48.9226672,15.381333 49.0253328,15.344 49.1560001,15.344 L50.8920001,15.344 C51.0226675,15.344 51.1253331,15.3626665 51.2000001,15.4 C51.2746672,15.4373335 51.3120001,15.4839997 51.3120001,15.54 L51.3120001,15.764 C51.3120001,16.2866693 51.596664,16.743998 52.1660001,17.136 C52.7353363,17.528002 53.4493292,17.724 54.3080001,17.724 C55.1666711,17.724 55.8573309,17.5420018 56.3800001,17.178 C56.9026694,16.8139982 57.1640001,16.3520028 57.1640001,15.792 C57.1640001,15.250664 56.9213359,14.844668 56.4360001,14.574 C55.9506644,14.303332 55.1666722,14.0186682 54.0840001,13.72 C53.0199948,13.4213318 52.1286704,13.1180015 51.4100001,12.81 C50.6913299,12.5019985 50.0846693,12.0633362 49.5900001,11.494 C49.095331,10.9246638 48.8480001,10.1920045 48.8480001,9.296 C48.8480001,8.04532708 49.3379952,7.05133702 50.3180001,6.314 C51.298005,5.57666298 52.599992,5.208 54.2240001,5.208 C55.3066722,5.208 56.2633293,5.38066494 57.0940001,5.726 C57.924671,6.07133506 58.5639979,6.55199692 59.0120001,7.168 C59.4600024,7.78400308 59.6840001,8.47466284 59.6840001,9.24 C59.6840001,9.35200056 59.6466672,9.44066634 59.5720001,9.506 C59.4973331,9.57133366 59.3946675,9.604 59.2640001,9.604 L57.5840001,9.604 C57.4533328,9.604 57.3506672,9.58533352 57.2760001,9.548 C57.2013331,9.51066648 57.1640001,9.46400028 57.1640001,9.408 L57.1640001,9.24 C57.1640001,8.69866396 56.8980028,8.24600182 56.3660001,7.882 C55.8339975,7.51799818 55.1106714,7.336 54.1960001,7.336 C53.3746627,7.336 52.707336,7.49466508 52.1940001,7.812 C51.6806642,8.12933492 51.4240001,8.55866396 51.4240001,9.1 C51.4240001,9.64133604 51.671331,10.0519986 52.1660001,10.332 C52.6606693,10.6120014 53.4586613,10.9106651 54.5600001,11.228 C55.6426722,11.5266682 56.5433299,11.8206652 57.2620001,12.11 C57.9806704,12.3993348 58.5919976,12.8286638 59.0960001,13.398 C59.6000027,13.9673362 59.8520001,14.7093288 59.8520001,15.624 C59.8520001,16.8933397 59.3526718,17.9013296 58.3540001,18.648 C57.3553285,19.3946704 56.0160085,19.768 54.3360001,19.768 C53.2346613,19.768 52.2593377,19.6000017 51.4100001,19.264 Z M72.4060002,5.726 C73.2553378,6.12733534 73.9086646,6.68732974 74.3660002,7.406 C74.8233358,8.12467026 75.0520002,8.94132876 75.0520002,9.856 L75.0520002,19.18 C75.0520002,19.3106673 75.0146672,19.413333 74.9400002,19.488 C74.8653332,19.562667 74.7626675,19.6 74.6320002,19.6 L72.7840002,19.6 C72.6533329,19.6 72.5506672,19.562667 72.4760002,19.488 C72.4013332,19.413333 72.3640002,19.3106673 72.3640002,19.18 L72.3640002,18.396 C72.3640002,18.3399997 72.3453337,18.3026668 72.3080002,18.284 C72.2706667,18.2653332 72.2333337,18.2746665 72.1960002,18.312 C71.6733309,18.7973358 71.0526705,19.1706654 70.3340002,19.432 C69.6153299,19.6933346 68.8360044,19.824 67.9960002,19.824 C66.6333267,19.824 65.5133379,19.4740035 64.6360002,18.774 C63.7586625,18.0739965 63.3200002,17.0146738 63.3200002,15.596 C63.3200002,14.1399927 63.8286618,12.9966708 64.8460002,12.166 C65.8633386,11.3353292 67.2866577,10.92 69.1160002,10.92 L72.2240002,10.92 C72.317334,10.92 72.3640002,10.8733338 72.3640002,10.78 L72.3640002,10.052 C72.3640002,9.23066256 72.1260026,8.59133562 71.6500002,8.134 C71.1739978,7.67666438 70.4506717,7.448 69.4800002,7.448 C68.714663,7.448 68.0940026,7.5879986 67.6180002,7.868 C67.1419978,8.1480014 66.8293343,8.53999748 66.6800002,9.044 C66.6053332,9.28666788 66.4466681,9.39866676 66.2040002,9.38 L64.1880002,9.128 C64.0573329,9.10933324 63.9546672,9.06733366 63.8800002,9.002 C63.8053332,8.93666634 63.7773334,8.8573338 63.7960002,8.764 C63.964001,7.69999468 64.565995,6.82733674 65.6020002,6.146 C66.6380054,5.46466326 67.9119926,5.124 69.4240002,5.124 C70.5626726,5.124 71.5566626,5.32466466 72.4060002,5.726 Z M71.2580002,16.772 C71.9953372,16.2493307 72.3640002,15.5866707 72.3640002,14.784 L72.3640002,13.16 C72.3640002,13.0666662 72.317334,13.02 72.2240002,13.02 L69.6200002,13.02 C68.5186614,13.02 67.6413368,13.2346645 66.9880002,13.664 C66.3346636,14.0933355 66.0080002,14.6906628 66.0080002,15.456 C66.0080002,16.1466701 66.2553311,16.6693316 66.7500002,17.024 C67.2446693,17.3786684 67.8839963,17.556 68.6680002,17.556 C69.6573385,17.556 70.5206632,17.2946693 71.2580002,16.772 Z M89.8600002,6.482 C90.7560047,7.3686711 91.2040002,8.56799244 91.2040002,10.08 L91.2040002,19.18 C91.2040002,19.3106673 91.1666673,19.413333 91.0920002,19.488 C91.0173332,19.562667 90.9146676,19.6 90.7840002,19.6 L88.9360002,19.6 C88.8053329,19.6 88.7026673,19.562667 88.6280002,19.488 C88.5533332,19.413333 88.5160002,19.3106673 88.5160002,19.18 L88.5160002,10.612 C88.5160002,9.678662 88.2453363,8.92266956 87.7040002,8.344 C87.1626642,7.76533044 86.4440047,7.476 85.5480002,7.476 C84.7453296,7.476 84.0686697,7.71399762 83.5180002,8.19 C82.9673308,8.66600238 82.645334,9.30532932 82.5520002,10.108 L82.5520002,19.18 C82.5520002,19.3106673 82.5146673,19.413333 82.4400002,19.488 C82.3653332,19.562667 82.2626676,19.6 82.1320002,19.6 L80.2840002,19.6 C80.1533329,19.6 80.0506673,19.562667 79.9760002,19.488 C79.9013332,19.413333 79.8640002,19.3106673 79.8640002,19.18 L79.8640002,5.768 C79.8640002,5.63733268 79.9013332,5.53466704 79.9760002,5.46 C80.0506673,5.38533296 80.1533329,5.348 80.2840002,5.348 L82.1320002,5.348 C82.2626676,5.348 82.3653332,5.38533296 82.4400002,5.46 C82.5146673,5.53466704 82.5520002,5.63733268 82.5520002,5.768 L82.5520002,6.552 C82.5520002,6.60800028 82.5706667,6.64533324 82.6080002,6.664 C82.6453338,6.68266676 82.6733335,6.67333352 82.6920002,6.636 C83.4760042,5.64666172 84.6519924,5.152 86.2200002,5.152 C87.7506746,5.152 88.9639958,5.5953289 89.8600002,6.482 Z M105.032,0.112 C105.106667,0.03733296 105.209333,7.10542736e-15 105.34,7.10542736e-15 L107.188,7.10542736e-15 C107.318668,7.10542736e-15 107.421333,0.03733296 107.496,0.112 C107.570667,0.18666704 107.608,0.28933268 107.608,0.42 L107.608,19.18 C107.608,19.3106673 107.570667,19.413333 107.496,19.488 C107.421333,19.562667 107.318668,19.6 107.188,19.6 L105.34,19.6 C105.209333,19.6 105.106667,19.562667 105.032,19.488 C104.957333,19.413333 104.92,19.3106673 104.92,19.18 L104.92,18.452 C104.92,18.3959997 104.901334,18.3586668 104.864,18.34 C104.826667,18.3213332 104.789334,18.3306665 104.752,18.368 C104.341332,18.834669 103.86067,19.1939987 103.31,19.446 C102.759331,19.6980013 102.157337,19.824 101.504,19.824 C100.159994,19.824 99.0446714,19.49267 98.1580003,18.83 C97.2713292,18.16733 96.622669,17.2293394 96.2120003,16.016 C95.8759986,15.082662 95.7080003,13.8880073 95.7080003,12.432 C95.7080003,11.0693265 95.8479989,9.94000448 96.1280003,9.044 C96.5200022,7.81199384 97.1686624,6.85067012 98.0740003,6.16 C98.9793381,5.46932988 100.12266,5.124 101.504,5.124 C102.157337,5.124 102.759331,5.24533212 103.31,5.488 C103.86067,5.73066788 104.341332,6.085331 104.752,6.552 C104.789334,6.58933352 104.826667,6.60333338 104.864,6.594 C104.901334,6.58466662 104.92,6.55200028 104.92,6.496 L104.92,0.42 C104.92,0.28933268 104.957333,0.18666704 105.032,0.112 Z M104.892,12.46 C104.892,10.9293257 104.649336,9.73467096 104.164,8.876 C103.622664,7.92399524 102.829339,7.448 101.784,7.448 C100.701328,7.448 99.8706698,7.89599552 99.2920003,8.792 C98.694664,9.725338 98.3960003,10.9573257 98.3960003,12.488 C98.3960003,13.9253405 98.6293313,15.0826623 99.0960003,15.96 C99.6373363,16.9866718 100.533327,17.5 101.784,17.5 C102.848006,17.5 103.659997,16.996005 104.22,15.988 C104.668003,15.1666626 104.892,13.9906743 104.892,12.46 Z M120.512,5.516 C120.717335,5.62800056 120.792001,5.80533212 120.736,6.048 L120.344,7.868 C120.325334,8.0546676 120.232001,8.148 120.064,8.148 C119.970667,8.148 119.896001,8.13866676 119.84,8.12 C119.559999,8.0266662 119.242669,7.98 118.888,7.98 C118.701333,7.98 118.561334,7.98933324 118.468,8.008 C117.590663,8.04533352 116.867337,8.34866382 116.298,8.918 C115.728664,9.48733618 115.444,10.2293288 115.444,11.144 L115.444,19.18 C115.444,19.3106673 115.406667,19.413333 115.332,19.488 C115.257333,19.562667 115.154668,19.6 115.024,19.6 L113.176,19.6 C113.045333,19.6 112.942667,19.562667 112.868,19.488 C112.793333,19.413333 112.756,19.3106673 112.756,19.18 L112.756,5.768 C112.756,5.63733268 112.793333,5.53466704 112.868,5.46 C112.942667,5.38533296 113.045333,5.348 113.176,5.348 L115.024,5.348 C115.154668,5.348 115.257333,5.38533296 115.332,5.46 C115.406667,5.53466704 115.444,5.63733268 115.444,5.768 L115.444,7.056 C115.444,7.13066704 115.458,7.17266662 115.486,7.182 C115.514,7.19133338 115.546667,7.16800028 115.584,7.112 C116.424005,5.84266032 117.56266,5.208 119,5.208 C119.560003,5.208 120.063998,5.31066564 120.512,5.516 Z M133.36,15.764 C133.453334,15.5959992 133.556,15.512 133.668,15.512 C133.761334,15.512 133.845333,15.5399997 133.92,15.596 L135.068,16.296 C135.217334,16.3893338 135.292,16.5106659 135.292,16.66 L135.236,16.884 C134.731998,17.7986712 134.018005,18.5173307 133.094,19.04 C132.169996,19.5626693 131.092007,19.824 129.86,19.824 C128.53466,19.824 127.414672,19.5300029 126.5,18.942 C125.585329,18.3539971 124.894669,17.5093388 124.428,16.408 C123.961331,15.2693276 123.728,13.9346743 123.728,12.404 C123.728,11.0413265 123.830666,10.0053369 124.036,9.296 C124.372002,8.00799356 125.043995,6.9906704 126.052,6.244 C127.060005,5.4973296 128.28266,5.124 129.72,5.124 C131.493343,5.124 132.846662,5.58599538 133.78,6.51 C134.713338,7.43400462 135.319999,8.77332456 135.6,10.528 C135.693334,11.2186701 135.758667,12.0586617 135.796,13.048 C135.796,13.3280014 135.656002,13.468 135.376,13.468 L126.528,13.468 C126.434667,13.468 126.388,13.5146662 126.388,13.608 C126.425334,14.3173369 126.490667,14.8213318 126.584,15.12 C126.789335,15.8666704 127.199997,16.4546645 127.816,16.884 C128.432003,17.3133355 129.197329,17.528 130.112,17.528 C131.624008,17.5093332 132.706664,16.9213391 133.36,15.764 Z M127.718,8.036 C127.204664,8.42800196 126.854668,8.96932988 126.668,9.66 C126.537333,10.0706687 126.453334,10.5933302 126.416,11.228 C126.416,11.3213338 126.462667,11.368 126.556,11.368 L132.912,11.368 C133.005334,11.368 133.052,11.3213338 133.052,11.228 C133.014667,10.6119969 132.958667,10.1546682 132.884,9.856 C132.697333,9.12799636 132.32867,8.54466886 131.778,8.106 C131.227331,7.66733114 130.541338,7.448 129.72,7.448 C128.898663,7.448 128.231336,7.64399804 127.718,8.036 Z M0,56.976 L0,55.52 C0,55.2399986 0.1399986,55.1 0.42,55.1 C1.42800504,55.0813332 2.16066438,54.8573355 2.618,54.428 C3.07533562,53.9986645 3.304,53.3266712 3.304,52.412 L3.304,37.768 C3.304,37.6373327 3.34133296,37.534667 3.416,37.46 C3.49066704,37.385333 3.59333268,37.348 3.724,37.348 L5.572,37.348 C5.70266732,37.348 5.80533296,37.385333 5.88,37.46 C5.95466704,37.534667 5.992,37.6373327 5.992,37.768 L5.992,52.384 C5.992,53.5973394 5.81000182,54.5679964 5.446,55.296 C5.08199818,56.0240036 4.49867068,56.5559983 3.696,56.892 C2.89332932,57.2280017 1.80134024,57.396 0.42,57.396 C0.1399986,57.396 0,57.2560014 0,56.976 Z M19.33,37.726 C20.1793376,38.1273353 20.8326644,38.6873297 21.29,39.406 C21.7473357,40.1246703 21.976,40.9413288 21.976,41.856 L21.976,51.18 C21.976,51.3106673 21.9386671,51.413333 21.864,51.488 C21.789333,51.562667 21.6866674,51.6 21.556,51.6 L19.708,51.6 C19.5773327,51.6 19.4746671,51.562667 19.4,51.488 C19.325333,51.413333 19.288,51.3106673 19.288,51.18 L19.288,50.396 C19.288,50.3399997 19.2693336,50.3026668 19.232,50.284 C19.1946665,50.2653332 19.1573336,50.2746665 19.12,50.312 C18.5973308,50.7973358 17.9766703,51.1706654 17.258,51.432 C16.5393298,51.6933346 15.7600042,51.824 14.92,51.824 C13.5573266,51.824 12.4373378,51.4740035 11.56,50.774 C10.6826623,50.0739965 10.244,49.0146738 10.244,47.596 C10.244,46.1399927 10.7526616,44.9966708 11.77,44.166 C12.7873385,43.3353292 14.2106576,42.92 16.04,42.92 L19.148,42.92 C19.2413338,42.92 19.288,42.8733338 19.288,42.78 L19.288,42.052 C19.288,41.2306626 19.0500024,40.5913356 18.574,40.134 C18.0979977,39.6766644 17.3746716,39.448 16.404,39.448 C15.6386629,39.448 15.0180024,39.5879986 14.542,39.868 C14.0659977,40.1480014 13.7533341,40.5399975 13.604,41.044 C13.529333,41.2866679 13.3706679,41.3986668 13.128,41.38 L11.112,41.128 C10.9813327,41.1093332 10.8786671,41.0673337 10.804,41.002 C10.729333,40.9366663 10.7013333,40.8573338 10.72,40.764 C10.8880009,39.6999947 11.4899949,38.8273367 12.526,38.146 C13.5620052,37.4646633 14.8359925,37.124 16.348,37.124 C17.4866724,37.124 18.4806625,37.3246647 19.33,37.726 Z M18.182,48.772 C18.9193371,48.2493307 19.288,47.5866707 19.288,46.784 L19.288,45.16 C19.288,45.0666662 19.2413338,45.02 19.148,45.02 L16.544,45.02 C15.4426612,45.02 14.5653366,45.2346645 13.912,45.664 C13.2586634,46.0933355 12.932,46.6906628 12.932,47.456 C12.932,48.1466701 13.1793309,48.6693316 13.674,49.024 C14.1686692,49.3786684 14.8079961,49.556 15.592,49.556 C16.5813383,49.556 17.444663,49.2946693 18.182,48.772 Z M28.8600001,50.746 C27.8519951,50.0273297 27.1613353,49.0520062 26.7880001,47.82 C26.5079987,46.961329 26.3680001,45.832007 26.3680001,44.432 C26.3680001,43.1439936 26.5079987,42.0146715 26.7880001,41.044 C27.1613353,39.8493274 27.8566617,38.8973369 28.8740001,38.188 C29.8913385,37.4786631 31.0999931,37.124 32.5000001,37.124 C33.9000071,37.124 35.1226615,37.4786631 36.1680001,38.188 C37.2133387,38.8973369 37.8946652,39.7933279 38.2120001,40.876 C38.3053339,41.1186679 38.3706666,41.3799986 38.4080001,41.66 L38.4080001,41.716 C38.4080001,41.9400011 38.286668,42.0706665 38.0440001,42.108 L36.2240001,42.36 L36.1400001,42.36 C35.9346657,42.36 35.8040004,42.2573344 35.7480001,42.052 L35.6640001,41.688 C35.514666,41.0533302 35.1506697,40.5213355 34.5720001,40.092 C33.9933305,39.6626645 33.2933375,39.448 32.4720001,39.448 C31.6693294,39.448 30.9880029,39.6626645 30.4280001,40.092 C29.8679973,40.5213355 29.5040009,41.0906631 29.3360001,41.8 C29.1679993,42.4720034 29.0840001,43.3586612 29.0840001,44.46 C29.0840001,45.5426721 29.1679993,46.4199966 29.3360001,47.092 C29.5226677,47.8386704 29.8913307,48.4266645 30.4420001,48.856 C30.9926695,49.2853355 31.6693294,49.5 32.4720001,49.5 C33.2746708,49.5 33.9653305,49.2900021 34.5440001,48.87 C35.1226697,48.4499979 35.4959993,47.9133366 35.6640001,47.26 L35.6920001,47.148 L35.6920001,47.12 C35.7106669,47.0266662 35.7666663,46.9380004 35.8600001,46.854 C35.9533339,46.7699996 36.0559995,46.7373332 36.1680001,46.756 L37.9880001,47.064 C38.2493347,47.1200003 38.3706669,47.2693321 38.3520001,47.512 C38.3333333,47.586667 38.2866671,47.7639986 38.2120001,48.044 C37.8946652,49.1826724 37.2133387,50.0973299 36.1680001,50.788 C35.1226615,51.4786701 33.9000071,51.824 32.5000001,51.824 C31.0813263,51.824 29.8680051,51.4646703 28.8600001,50.746 Z M51.5080001,37.46 C51.5826672,37.385333 51.6853328,37.348 51.8160001,37.348 L53.6640001,37.348 C53.7946675,37.348 53.8973331,37.385333 53.9720001,37.46 C54.0466672,37.534667 54.0840001,37.6373327 54.0840001,37.768 L54.0840001,56.528 C54.0840001,56.6586673 54.0466672,56.761333 53.9720001,56.836 C53.8973331,56.910667 53.7946675,56.948 53.6640001,56.948 L51.8160001,56.948 C51.6853328,56.948 51.5826672,56.910667 51.5080001,56.836 C51.4333331,56.761333 51.3960001,56.6586673 51.3960001,56.528 L51.3960001,50.452 C51.3960001,50.3959997 51.3773337,50.3633334 51.3400001,50.354 C51.3026666,50.3446666 51.2653337,50.3586665 51.2280001,50.396 C50.8173314,50.862669 50.3366696,51.2173321 49.7860001,51.46 C49.2353307,51.7026679 48.6333367,51.824 47.9800001,51.824 C46.5986599,51.824 45.455338,51.4786701 44.5500001,50.788 C43.6446623,50.0973299 42.9960021,49.1360062 42.6040001,47.904 C42.3239987,47.0079955 42.1840001,45.8786735 42.1840001,44.516 C42.1840001,43.0599927 42.3519985,41.865338 42.6880001,40.932 C43.0986689,39.7186606 43.747329,38.78067 44.6340001,38.118 C45.5206712,37.45533 46.6359934,37.124 47.9800001,37.124 C48.6333367,37.124 49.2353307,37.2499987 49.7860001,37.502 C50.3366696,37.7540013 50.8173314,38.113331 51.2280001,38.58 C51.2653337,38.6173335 51.3026666,38.6266668 51.3400001,38.608 C51.3773337,38.5893332 51.3960001,38.5520003 51.3960001,38.496 L51.3960001,37.768 C51.3960001,37.6373327 51.4333331,37.534667 51.5080001,37.46 Z M51.3680001,44.488 C51.3680001,42.9386589 51.1440024,41.7626707 50.6960001,40.96 C50.1359973,39.951995 49.3240055,39.448 48.2600001,39.448 C47.0093272,39.448 46.1133362,39.9613282 45.5720001,40.988 C45.1053311,41.8653377 44.8720001,43.0226595 44.8720001,44.46 C44.8720001,45.9906743 45.1706638,47.222662 45.7680001,48.156 C46.3466697,49.0520045 47.1773281,49.5 48.2600001,49.5 C49.3053387,49.5 50.0986641,49.0240048 50.6400001,48.072 C51.1253359,47.213329 51.3680001,46.0186743 51.3680001,44.488 Z M67.9680002,37.46 C68.0426672,37.385333 68.1453329,37.348 68.2760002,37.348 L70.0960002,37.348 C70.2266675,37.348 70.3293332,37.385333 70.4040002,37.46 C70.4786672,37.534667 70.5160002,37.6373327 70.5160002,37.768 L70.5160002,51.18 C70.5160002,51.3106673 70.4786672,51.413333 70.4040002,51.488 C70.3293332,51.562667 70.2266675,51.6 70.0960002,51.6 L68.2760002,51.6 C68.1453329,51.6 68.0426672,51.562667 67.9680002,51.488 C67.8933332,51.413333 67.8560002,51.3106673 67.8560002,51.18 L67.8560002,50.34 C67.8560002,50.2839997 67.8373337,50.2513334 67.8000002,50.242 C67.7626667,50.2326666 67.7253337,50.2466665 67.6880002,50.284 C66.9413298,51.292005 65.8026745,51.796 64.2720002,51.796 C63.357329,51.796 62.5126707,51.6186684 61.7380002,51.264 C60.9633297,50.9093316 60.3426692,50.3866701 59.8760002,49.696 C59.4093312,49.0053299 59.1760002,48.1653383 59.1760002,47.176 L59.1760002,37.768 C59.1760002,37.6373327 59.2133332,37.534667 59.2880002,37.46 C59.3626672,37.385333 59.4653329,37.348 59.5960002,37.348 L61.4160002,37.348 C61.5466675,37.348 61.6493332,37.385333 61.7240002,37.46 C61.7986672,37.534667 61.8360002,37.6373327 61.8360002,37.768 L61.8360002,46.336 C61.8360002,47.3066715 62.0926643,48.0719972 62.6060002,48.632 C63.1193361,49.1920028 63.8426622,49.472 64.7760002,49.472 C65.7093382,49.472 66.4559974,49.1873362 67.0160002,48.618 C67.576003,48.0486638 67.8560002,47.2880048 67.8560002,46.336 L67.8560002,37.768 C67.8560002,37.6373327 67.8933332,37.534667 67.9680002,37.46 Z M84.8760002,47.764 C84.969334,47.5959992 85.0719997,47.512 85.1840002,47.512 C85.277334,47.512 85.3613332,47.5399997 85.4360002,47.596 L86.5840002,48.296 C86.7333343,48.3893338 86.8080002,48.5106659 86.8080002,48.66 L86.7520002,48.884 C86.2479977,49.7986712 85.5340049,50.5173307 84.6100002,51.04 C83.6859956,51.5626693 82.6080064,51.824 81.3760002,51.824 C80.0506603,51.824 78.9306715,51.5300029 78.0160002,50.942 C77.101329,50.3539971 76.4106692,49.5093388 75.9440002,48.408 C75.4773312,47.2693276 75.2440002,45.9346743 75.2440002,44.404 C75.2440002,43.0413265 75.3466659,42.0053369 75.5520002,41.296 C75.8880019,40.0079936 76.5599952,38.9906704 77.5680002,38.244 C78.5760053,37.4973296 79.7986597,37.124 81.2360002,37.124 C83.0093424,37.124 84.3626622,37.5859954 85.2960002,38.51 C86.2293382,39.4340046 86.8359988,40.7733246 87.1160002,42.528 C87.209334,43.2186701 87.2746667,44.0586617 87.3120002,45.048 C87.3120002,45.3280014 87.1720016,45.468 86.8920002,45.468 L78.0440002,45.468 C77.9506664,45.468 77.9040002,45.5146662 77.9040002,45.608 C77.9413338,46.3173369 78.0066664,46.8213318 78.1000002,47.12 C78.3053346,47.8666704 78.7159972,48.4546645 79.3320002,48.884 C79.9480033,49.3133355 80.713329,49.528 81.6280002,49.528 C83.1400078,49.5093332 84.2226636,48.9213391 84.8760002,47.764 Z M79.2340002,40.036 C78.7206643,40.428002 78.3706678,40.9693299 78.1840002,41.66 C78.0533329,42.0706687 77.9693338,42.5933302 77.9320002,43.228 C77.9320002,43.3213338 77.9786664,43.368 78.0720002,43.368 L84.4280002,43.368 C84.521334,43.368 84.5680002,43.3213338 84.5680002,43.228 C84.5306667,42.6119969 84.4746673,42.1546682 84.4000002,41.856 C84.2133326,41.1279964 83.8446697,40.5446689 83.2940002,40.106 C82.7433308,39.6673311 82.0573377,39.448 81.2360002,39.448 C80.4146628,39.448 79.7473361,39.643998 79.2340002,40.036 Z M110.072,38.426 C110.893338,39.2753376 111.304,40.4559924 111.304,41.968 L111.304,51.18 C111.304,51.3106673 111.266667,51.413333 111.192,51.488 C111.117333,51.562667 111.014668,51.6 110.884,51.6 L109.064,51.6 C108.933333,51.6 108.830667,51.562667 108.756,51.488 C108.681333,51.413333 108.644,51.3106673 108.644,51.18 L108.644,42.528 C108.644,41.594662 108.387336,40.8526694 107.874,40.302 C107.360664,39.7513306 106.674671,39.476 105.816,39.476 C104.957329,39.476 104.257336,39.746664 103.716,40.288 C103.174664,40.829336 102.904,41.5573288 102.904,42.472 L102.904,51.18 C102.904,51.3106673 102.866667,51.413333 102.792,51.488 C102.717333,51.562667 102.614668,51.6 102.484,51.6 L100.664,51.6 C100.533333,51.6 100.430667,51.562667 100.356,51.488 C100.281333,51.413333 100.244,51.3106673 100.244,51.18 L100.244,42.528 C100.244,41.594662 99.9873362,40.8526694 99.4740003,40.302 C98.9606644,39.7513306 98.2746712,39.476 97.4160003,39.476 C96.5573293,39.476 95.8713362,39.746664 95.3580003,40.288 C94.8446644,40.829336 94.5880003,41.5573288 94.5880003,42.472 L94.5880003,51.18 C94.5880003,51.3106673 94.5506673,51.413333 94.4760003,51.488 C94.4013332,51.562667 94.2986676,51.6 94.1680003,51.6 L92.3200003,51.6 C92.189333,51.6 92.0866673,51.562667 92.0120003,51.488 C91.9373332,51.413333 91.9000003,51.3106673 91.9000003,51.18 L91.9000003,37.768 C91.9000003,37.6373327 91.9373332,37.534667 92.0120003,37.46 C92.0866673,37.385333 92.189333,37.348 92.3200003,37.348 L94.1680003,37.348 C94.2986676,37.348 94.4013332,37.385333 94.4760003,37.46 C94.5506673,37.534667 94.5880003,37.6373327 94.5880003,37.768 L94.5880003,38.524 C94.5880003,38.5800003 94.6066668,38.6173332 94.6440003,38.636 C94.6813338,38.6546668 94.7186668,38.6453335 94.7560003,38.608 C95.5960045,37.6373285 96.781326,37.152 98.3120003,37.152 C99.2453383,37.152 100.052664,37.3339982 100.734,37.698 C101.415337,38.0620018 101.942665,38.5893299 102.316,39.28 C102.372001,39.354667 102.437333,39.354667 102.512,39.28 C102.941336,38.5519964 103.524663,38.0153351 104.262,37.67 C104.999337,37.3246649 105.815996,37.152 106.712,37.152 C108.130674,37.152 109.250663,37.5766624 110.072,38.426 Z M116.564,51.488 C116.489333,51.413333 116.452,51.3106673 116.452,51.18 L116.452,37.768 C116.452,37.6373327 116.489333,37.534667 116.564,37.46 C116.638667,37.385333 116.741333,37.348 116.872,37.348 L118.72,37.348 C118.850668,37.348 118.953333,37.385333 119.028,37.46 C119.102667,37.534667 119.14,37.6373327 119.14,37.768 L119.14,51.18 C119.14,51.3106673 119.102667,51.413333 119.028,51.488 C118.953333,51.562667 118.850668,51.6 118.72,51.6 L116.872,51.6 C116.741333,51.6 116.638667,51.562667 116.564,51.488 Z M134.452,38.482 C135.348005,39.3686711 135.796,40.5679924 135.796,42.08 L135.796,51.18 C135.796,51.3106673 135.758667,51.413333 135.684,51.488 C135.609333,51.562667 135.506668,51.6 135.376,51.6 L133.528,51.6 C133.397333,51.6 133.294667,51.562667 133.22,51.488 C133.145333,51.413333 133.108,51.3106673 133.108,51.18 L133.108,42.612 C133.108,41.678662 132.837336,40.9226696 132.296,40.344 C131.754664,39.7653304 131.036005,39.476 130.14,39.476 C129.33733,39.476 128.66067,39.7139976 128.11,40.19 C127.559331,40.6660024 127.237334,41.3053293 127.144,42.108 L127.144,51.18 C127.144,51.3106673 127.106667,51.413333 127.032,51.488 C126.957333,51.562667 126.854668,51.6 126.724,51.6 L124.876,51.6 C124.745333,51.6 124.642667,51.562667 124.568,51.488 C124.493333,51.413333 124.456,51.3106673 124.456,51.18 L124.456,37.768 C124.456,37.6373327 124.493333,37.534667 124.568,37.46 C124.642667,37.385333 124.745333,37.348 124.876,37.348 L126.724,37.348 C126.854668,37.348 126.957333,37.385333 127.032,37.46 C127.106667,37.534667 127.144,37.6373327 127.144,37.768 L127.144,38.552 C127.144,38.6080003 127.162667,38.6453332 127.2,38.664 C127.237334,38.6826668 127.265334,38.6733335 127.284,38.636 C128.068004,37.6466617 129.243993,37.152 130.812,37.152 C132.342675,37.152 133.555996,37.5953289 134.452,38.482 Z M3.332,34.772 C2.99599832,34.4359983 2.828,34.0160025 2.828,33.512 C2.828,33.0079975 3.00533156,32.5880017 3.36,32.252 C3.71466844,31.9159983 4.14399748,31.748 4.648,31.748 C5.15200252,31.748 5.58599818,31.9159983 5.95,32.252 C6.31400182,32.5880017 6.496,33.0079975 6.496,33.512 C6.496,34.0160025 6.32800168,34.4359983 5.992,34.772 C5.65599832,35.1080017 5.2080028,35.276 4.648,35.276 C4.10666396,35.276 3.66800168,35.1080017 3.332,34.772 Z M116.466,34.73 C116.120665,34.4033317 115.948,33.9786693 115.948,33.456 C115.948,32.9333307 116.120665,32.5086683 116.466,32.182 C116.811335,31.8553317 117.254664,31.692 117.796,31.692 C118.337336,31.692 118.775999,31.8553317 119.112,32.182 C119.448002,32.5086683 119.616,32.9333307 119.616,33.456 C119.616,33.9786693 119.448002,34.4033317 119.112,34.73 C118.775999,35.0566683 118.337336,35.22 117.796,35.22 C117.254664,35.22 116.811335,35.0566683 116.466,34.73 Z"/>
  </defs>
  <g fill="none" fill-rule="evenodd">
    <use fill="#303030" xlink:href="#regular-a"/>
  </g>
</svg>
