<svg xmlns="http://www.w3.org/2000/svg" xmlns:xlink="http://www.w3.org/1999/xlink" width="100" height="100" viewBox="0 0 100 100">
  <defs>
    <path id="twitter-a" d="M97.4413752,18.5391429 C95.2639685,19.5103862 93.0036516,20.2766133 90.6843181,20.8313348 C93.2399575,18.3884452 95.1614657,15.3329103 96.2455099,11.9223825 C96.5549296,10.9487357 95.5036194,10.1067992 94.6295984,10.6281124 C91.4030319,12.5532941 87.9274962,13.9975408 84.2992815,14.9211954 C84.0887805,14.9747928 83.8715894,15.0019521 83.6536815,15.0019521 C82.9927897,15.0019521 82.3502958,14.7551154 81.8449501,14.3071081 C77.9847304,10.8848033 73.0199182,9 67.8653923,9 C65.6349423,9 63.3829882,9.34970528 61.1718918,10.039502 C54.3211725,12.1769102 49.0352329,17.8613636 47.3767911,24.874697 C46.7546067,27.5052979 46.5861581,30.1383023 46.8757463,32.7004042 C46.9089581,32.9948296 46.7706152,33.2003265 46.6853158,33.2967058 C46.5355041,33.4656699 46.3230916,33.5625299 46.1025554,33.5625299 C46.0779452,33.5625299 46.0526182,33.5613281 46.0275301,33.5589247 C31.0315465,32.1574597 17.5088308,24.8900792 7.95027113,13.0957579 C7.46284551,12.4941686 6.52813521,12.5679553 6.13962833,13.2382838 C4.26781839,16.4685511 3.27863111,20.1631694 3.27863111,23.9226815 C3.27863111,29.6842863 5.57980567,35.1139715 9.57693465,39.0722507 C7.89603308,38.6713515 6.26913062,38.0399592 4.75787228,37.1956192 C4.02673386,36.7870289 3.12714688,37.3121877 3.11687271,38.1534031 C3.01221956,46.7126502 7.99399607,54.3287746 15.4568645,57.7582898 C15.306575,57.761895 15.1562854,57.7635774 15.0057569,57.7635774 C13.8227941,57.7635774 12.6250173,57.6486914 11.4461163,57.4220439 C10.6227493,57.2638954 9.93103502,58.0495907 10.1866945,58.8525909 C12.6090087,66.4598224 19.1204415,72.0671243 26.9125612,73.3402438 C20.4455701,77.7071134 12.9146054,80.0106017 5.07637147,80.0106017 L2.63279217,80.0091596 C1.87991074,80.0091596 1.2431513,80.5028329 1.0512872,81.2363727 C0.862290305,81.9588567 1.21041732,82.7209979 1.85243332,83.0966606 C10.6848722,88.2672515 20.7595296,91 30.9916445,91 C39.9480902,91 48.3260764,89.2120566 55.8931201,85.6861622 C62.8300946,82.4537317 68.9601885,77.8330554 74.1130418,71.9524787 C78.9132284,66.4744836 82.6668835,60.1507065 85.269354,53.1570816 C87.750207,46.4905693 89.0614775,39.3772514 89.0614775,32.5859989 L89.0614775,32.2624915 C89.0612386,31.1720359 89.5515314,30.1459934 90.4069156,29.4475442 C93.6528357,26.7965138 96.4794264,23.6758448 98.8078394,20.1723026 C99.4226169,19.247206 98.4530222,18.0877707 97.4413752,18.5391429 Z"/>
  </defs>
  <g fill="none" fill-rule="evenodd">
    <use fill="#171717" fill-rule="nonzero" xlink:href="#twitter-a"/>
  </g>
</svg>
